<?xml version="1.0" encoding="UTF-8" standalone="no"?>
<svg
   xmlns:dc="http://purl.org/dc/elements/1.1/"
   xmlns:cc="http://creativecommons.org/ns#"
   xmlns:rdf="http://www.w3.org/1999/02/22-rdf-syntax-ns#"
   xmlns:svg="http://www.w3.org/2000/svg"
   xmlns="http://www.w3.org/2000/svg"
   height="96"
   width="96"
   xml:space="preserve"
   viewBox="0 0 89.470314 89.470313"
   y="0px"
   x="0px"
   id="Capa_1"
   version="1.1"><metadata
     id="metadata4412"><rdf:RDF><cc:Work
         rdf:about=""><dc:format>image/svg+xml</dc:format><dc:type
           rdf:resource="http://purl.org/dc/dcmitype/StillImage" /><dc:title></dc:title></cc:Work></rdf:RDF></metadata><defs
     id="defs4410" /><g
     transform="matrix(-0.20614368,0,0,-0.16525423,93.370324,85.426456)"
     id="g4374"><path
       style="fill:#92cee2"
       id="path4376"
       d="m 145.188,238.575 215.5,-215.5 c 5.3,-5.3 5.3,-13.8 0,-19.1 -5.3,-5.3 -13.8,-5.3 -19.1,0 l -225.1,225.1 c -5.3,5.3 -5.3,13.8 0,19.1 l 225.1,225 c 2.6,2.6 6.1,4 9.5,4 3.4,0 6.9,-1.3 9.5,-4 5.3,-5.3 5.3,-13.8 0,-19.1 l -215.4,-215.5 z" /></g><g
     transform="matrix(0.30236869,0,0,0.16525423,-25.932697,6.5712691)"
     id="g4378" /><g
     transform="matrix(0.30236869,0,0,0.16525423,-25.932697,6.5712691)"
     id="g4380" /><g
     transform="matrix(0.30236869,0,0,0.16525423,-25.932697,6.5712691)"
     id="g4382" /><g
     transform="matrix(0.30236869,0,0,0.16525423,-25.932697,6.5712691)"
     id="g4384" /><g
     transform="matrix(0.30236869,0,0,0.16525423,-25.932697,6.5712691)"
     id="g4386" /><g
     transform="matrix(0.30236869,0,0,0.16525423,-25.932697,6.5712691)"
     id="g4388" /><g
     transform="matrix(0.30236869,0,0,0.16525423,-25.932697,6.5712691)"
     id="g4390" /><g
     transform="matrix(0.30236869,0,0,0.16525423,-25.932697,6.5712691)"
     id="g4392" /><g
     transform="matrix(0.30236869,0,0,0.16525423,-25.932697,6.5712691)"
     id="g4394" /><g
     transform="matrix(0.30236869,0,0,0.16525423,-25.932697,6.5712691)"
     id="g4396" /><g
     transform="matrix(0.30236869,0,0,0.16525423,-25.932697,6.5712691)"
     id="g4398" /><g
     transform="matrix(0.30236869,0,0,0.16525423,-25.932697,6.5712691)"
     id="g4400" /><g
     transform="matrix(0.30236869,0,0,0.16525423,-25.932697,6.5712691)"
     id="g4402" /><g
     transform="matrix(0.30236869,0,0,0.16525423,-25.932697,6.5712691)"
     id="g4404" /><g
     transform="matrix(0.30236869,0,0,0.16525423,-25.932697,6.5712691)"
     id="g4406" /></svg>