<?xml version="1.0" encoding="UTF-8" standalone="no"?>
<svg
   xmlns:dc="http://purl.org/dc/elements/1.1/"
   xmlns:cc="http://creativecommons.org/ns#"
   xmlns:rdf="http://www.w3.org/1999/02/22-rdf-syntax-ns#"
   xmlns:svg="http://www.w3.org/2000/svg"
   xmlns="http://www.w3.org/2000/svg"
   xmlns:sodipodi="http://sodipodi.sourceforge.net/DTD/sodipodi-0.dtd"
   xmlns:inkscape="http://www.inkscape.org/namespaces/inkscape"
   height="32"
   width="32"
   xml:space="preserve"
   viewBox="0 0 29.45 29.45"
   y="0px"
   x="0px"
   id="Capa_1"
   version="1.1"
   inkscape:version="0.91 r13725"
   sodipodi:docname="close-small.svg"><sodipodi:namedview
     pagecolor="#ffffff"
     bordercolor="#666666"
     borderopacity="1"
     objecttolerance="10"
     gridtolerance="10"
     guidetolerance="10"
     inkscape:pageopacity="0"
     inkscape:pageshadow="2"
     inkscape:window-width="640"
     inkscape:window-height="480"
     id="namedview24"
     showgrid="false"
     inkscape:zoom="3.6875"
     inkscape:cx="32"
     inkscape:cy="32"
     inkscape:window-x="0"
     inkscape:window-y="27"
     inkscape:window-maximized="0"
     inkscape:current-layer="Capa_1" /><metadata
     id="metadata4700"><rdf:RDF><cc:Work
         rdf:about=""><dc:format>image/svg+xml</dc:format><dc:type
           rdf:resource="http://purl.org/dc/dcmitype/StillImage" /><dc:title></dc:title></cc:Work></rdf:RDF></metadata><defs
     id="defs4698" /><g
     transform="matrix(0.04544185,0,0,0.04394142,3.8035888,4.4017504)"
     id="g4658"><g
       id="g4660"><path
         style="fill:#92cee2"
         id="path4662"
         d="m 227.619,444.2 -122.9,0 c -33.4,0 -60.5,-27.2 -60.5,-60.5 l 0,-296.2 c 0,-33.4 27.2,-60.5 60.5,-60.5 l 124.9,0 c 7.5,0 13.5,-6 13.5,-13.5 0,-7.5 -6,-13.5 -13.5,-13.5 l -124.9,0 c -48.3,0 -87.5,39.3 -87.5,87.5 l 0,296.2 c 0,48.3 39.3,87.5 87.5,87.5 l 122.9,0 c 7.5,0 13.5,-6 13.5,-13.5 0,-7.5 -6.1,-13.5 -13.5,-13.5 z"
         inkscape:connector-curvature="0" /><path
         style="fill:#92cee2"
         id="path4664"
         d="m 450.019,226.1 -85.8,-85.8 c -5.3,-5.3 -13.8,-5.3 -19.1,0 -5.3,5.3 -5.3,13.8 0,19.1 l 62.8,62.8 -273.9,0 c -7.5,0 -13.5,6 -13.5,13.5 0,7.5 6,13.5 13.5,13.5 l 273.9,0 -62.8,62.8 c -5.3,5.3 -5.3,13.8 0,19.1 2.6,2.6 6.1,4 9.5,4 3.4,0 6.9,-1.3 9.5,-4 l 85.8,-85.8 c 5.4,-5.4 5.4,-14 0.1,-19.2 z"
         inkscape:connector-curvature="0" /></g></g><g
     transform="translate(0,-441.75)"
     id="g4666" /><g
     transform="translate(0,-441.75)"
     id="g4668" /><g
     transform="translate(0,-441.75)"
     id="g4670" /><g
     transform="translate(0,-441.75)"
     id="g4672" /><g
     transform="translate(0,-441.75)"
     id="g4674" /><g
     transform="translate(0,-441.75)"
     id="g4676" /><g
     transform="translate(0,-441.75)"
     id="g4678" /><g
     transform="translate(0,-441.75)"
     id="g4680" /><g
     transform="translate(0,-441.75)"
     id="g4682" /><g
     transform="translate(0,-441.75)"
     id="g4684" /><g
     transform="translate(0,-441.75)"
     id="g4686" /><g
     transform="translate(0,-441.75)"
     id="g4688" /><g
     transform="translate(0,-441.75)"
     id="g4690" /><g
     transform="translate(0,-441.75)"
     id="g4692" /><g
     transform="translate(0,-441.75)"
     id="g4694" /></svg>