<?xml version="1.0" encoding="UTF-8" standalone="no"?>
<svg
   xmlns:dc="http://purl.org/dc/elements/1.1/"
   xmlns:cc="http://creativecommons.org/ns#"
   xmlns:rdf="http://www.w3.org/1999/02/22-rdf-syntax-ns#"
   xmlns:svg="http://www.w3.org/2000/svg"
   xmlns="http://www.w3.org/2000/svg"
   version="1.1"
   id="Capa_1"
   x="0px"
   y="0px"
   viewBox="0 0 30.38725 30.38725"
   xml:space="preserve"
   width="32"
   height="32"><metadata
     id="metadata41"><rdf:RDF><cc:Work
         rdf:about=""><dc:format>image/svg+xml</dc:format><dc:type
           rdf:resource="http://purl.org/dc/dcmitype/StillImage" /><dc:title></dc:title></cc:Work></rdf:RDF></metadata><defs
     id="defs39" /><g
     id="g3"
     transform="matrix(0.05589558,0,0,0.05092853,1.838039,2.7351908)"><path
       d="m 481.708,220.456 -228.8,-204.6 c -0.4,-0.4 -0.8,-0.7 -1.3,-1 -5,-4.8 -13,-5 -18.3,-0.3 l -228.8,204.6 c -5.6,5 -6,13.5 -1.1,19.1 2.7,3 6.4,4.5 10.1,4.5 3.2,0 6.4,-1.1 9,-3.4 l 41.2,-36.9 0,7.2 0,106.8 0,124.6 c 0,18.7 15.2,34 34,34 0.3,0 0.5,0 0.8,0 0.3,0 0.5,0 0.8,0 l 70.6,0 c 17.6,0 31.9,-14.3 31.9,-31.9 l 0,-121.3 c 0,-2.7 2.2,-4.9 4.9,-4.9 l 72.9,0 c 2.7,0 4.9,2.2 4.9,4.9 l 0,121.3 c 0,17.6 14.3,31.9 31.9,31.9 l 72.2,0 c 19,0 34,-18.7 34,-42.6 l 0,-111.2 0,-34 0,-83.5 41.2,36.9 c 2.6,2.3 5.8,3.4 9,3.4 3.7,0 7.4,-1.5 10.1,-4.5 4.8,-5.6 4.3,-14.1 -1.2,-19.1 z m -86.2,66.7 0,34 0,111.1 c 0,9.7 -4.8,15.6 -7,15.6 l -72.2,0 c -2.7,0 -4.9,-2.2 -4.9,-4.9 l 0,-121.1 c 0,-17.6 -14.3,-31.9 -31.9,-31.9 l -72.9,0 c -17.6,0 -31.9,14.3 -31.9,31.9 l 0,121.3 c 0,2.7 -2.2,4.9 -4.9,4.9 l -70.6,0 c -0.3,0 -0.5,0 -0.8,0 -0.3,0 -0.5,0 -0.8,0 -3.8,0 -7,-3.1 -7,-7 l 0,-124.7 0,-106.8 0,-31.3 151.8,-135.6 153.1,136.9 0,107.6 0,0 z"
       id="path5"
       style="fill:#92cee2" /></g><g
     id="g7"
     transform="translate(0,-455.80878)" /><g
     id="g9"
     transform="translate(0,-455.80878)" /><g
     id="g11"
     transform="translate(0,-455.80878)" /><g
     id="g13"
     transform="translate(0,-455.80878)" /><g
     id="g15"
     transform="translate(0,-455.80878)" /><g
     id="g17"
     transform="translate(0,-455.80878)" /><g
     id="g19"
     transform="translate(0,-455.80878)" /><g
     id="g21"
     transform="translate(0,-455.80878)" /><g
     id="g23"
     transform="translate(0,-455.80878)" /><g
     id="g25"
     transform="translate(0,-455.80878)" /><g
     id="g27"
     transform="translate(0,-455.80878)" /><g
     id="g29"
     transform="translate(0,-455.80878)" /><g
     id="g31"
     transform="translate(0,-455.80878)" /><g
     id="g33"
     transform="translate(0,-455.80878)" /><g
     id="g35"
     transform="translate(0,-455.80878)" /></svg>